<mxfile host="app.diagrams.net" modified="2024-02-26T20:32:16.620Z" agent="Mozilla/5.0 (X11; Ubuntu; Linux x86_64; rv:122.0) Gecko/20100101 Firefox/122.0" etag="O2K31dqM94r7SFh980Te" version="21.3.6">
  <diagram id="SG_xshCdp_A4oeQ90sPI" name="Seite-1">
    <mxGraphModel dx="954" dy="491" grid="1" gridSize="10" guides="1" tooltips="1" connect="1" arrows="1" fold="1" page="1" pageScale="1" pageWidth="827" pageHeight="1169" math="0" shadow="0">
      <root>
        <mxCell id="0" />
        <mxCell id="1" parent="0" />
        <mxCell id="rjSzeSzZr6Pc4ohsFtxr-1" value="&lt;u&gt;username&lt;/u&gt;" style="ellipse;whiteSpace=wrap;html=1;" vertex="1" parent="1">
          <mxGeometry x="110" y="10" width="120" height="80" as="geometry" />
        </mxCell>
        <mxCell id="rjSzeSzZr6Pc4ohsFtxr-11" style="edgeStyle=orthogonalEdgeStyle;rounded=0;orthogonalLoop=1;jettySize=auto;html=1;entryX=0;entryY=0.5;entryDx=0;entryDy=0;" edge="1" parent="1" source="rjSzeSzZr6Pc4ohsFtxr-2" target="rjSzeSzZr6Pc4ohsFtxr-6">
          <mxGeometry relative="1" as="geometry" />
        </mxCell>
        <mxCell id="rjSzeSzZr6Pc4ohsFtxr-16" style="edgeStyle=orthogonalEdgeStyle;rounded=0;orthogonalLoop=1;jettySize=auto;html=1;entryX=0.5;entryY=0;entryDx=0;entryDy=0;" edge="1" parent="1" source="rjSzeSzZr6Pc4ohsFtxr-2" target="rjSzeSzZr6Pc4ohsFtxr-15">
          <mxGeometry relative="1" as="geometry" />
        </mxCell>
        <mxCell id="rjSzeSzZr6Pc4ohsFtxr-25" style="edgeStyle=orthogonalEdgeStyle;rounded=0;orthogonalLoop=1;jettySize=auto;html=1;entryX=0.5;entryY=1;entryDx=0;entryDy=0;" edge="1" parent="1" source="rjSzeSzZr6Pc4ohsFtxr-2" target="rjSzeSzZr6Pc4ohsFtxr-1">
          <mxGeometry relative="1" as="geometry" />
        </mxCell>
        <mxCell id="rjSzeSzZr6Pc4ohsFtxr-26" style="edgeStyle=orthogonalEdgeStyle;rounded=0;orthogonalLoop=1;jettySize=auto;html=1;" edge="1" parent="1" source="rjSzeSzZr6Pc4ohsFtxr-2" target="rjSzeSzZr6Pc4ohsFtxr-3">
          <mxGeometry relative="1" as="geometry" />
        </mxCell>
        <mxCell id="rjSzeSzZr6Pc4ohsFtxr-27" style="edgeStyle=orthogonalEdgeStyle;rounded=0;orthogonalLoop=1;jettySize=auto;html=1;" edge="1" parent="1" source="rjSzeSzZr6Pc4ohsFtxr-2" target="rjSzeSzZr6Pc4ohsFtxr-4">
          <mxGeometry relative="1" as="geometry" />
        </mxCell>
        <mxCell id="rjSzeSzZr6Pc4ohsFtxr-28" style="edgeStyle=orthogonalEdgeStyle;rounded=0;orthogonalLoop=1;jettySize=auto;html=1;entryX=0.583;entryY=0;entryDx=0;entryDy=0;entryPerimeter=0;" edge="1" parent="1" source="rjSzeSzZr6Pc4ohsFtxr-2" target="rjSzeSzZr6Pc4ohsFtxr-5">
          <mxGeometry relative="1" as="geometry" />
        </mxCell>
        <mxCell id="rjSzeSzZr6Pc4ohsFtxr-2" value="&lt;div&gt;Player&lt;/div&gt;" style="rounded=0;whiteSpace=wrap;html=1;" vertex="1" parent="1">
          <mxGeometry x="140" y="150" width="120" height="60" as="geometry" />
        </mxCell>
        <mxCell id="rjSzeSzZr6Pc4ohsFtxr-3" value="&lt;div&gt;&lt;u&gt;device_id&lt;/u&gt;&lt;/div&gt;" style="ellipse;whiteSpace=wrap;html=1;" vertex="1" parent="1">
          <mxGeometry x="240" y="40" width="120" height="80" as="geometry" />
        </mxCell>
        <mxCell id="rjSzeSzZr6Pc4ohsFtxr-4" value="role" style="ellipse;whiteSpace=wrap;html=1;" vertex="1" parent="1">
          <mxGeometry y="90" width="120" height="80" as="geometry" />
        </mxCell>
        <mxCell id="rjSzeSzZr6Pc4ohsFtxr-5" value="accepted" style="ellipse;whiteSpace=wrap;html=1;" vertex="1" parent="1">
          <mxGeometry x="10" y="210" width="120" height="80" as="geometry" />
        </mxCell>
        <mxCell id="rjSzeSzZr6Pc4ohsFtxr-6" value="has" style="rhombus;whiteSpace=wrap;html=1;" vertex="1" parent="1">
          <mxGeometry x="410" y="140" width="80" height="80" as="geometry" />
        </mxCell>
        <mxCell id="rjSzeSzZr6Pc4ohsFtxr-12" style="edgeStyle=orthogonalEdgeStyle;rounded=0;orthogonalLoop=1;jettySize=auto;html=1;entryX=1;entryY=0.5;entryDx=0;entryDy=0;" edge="1" parent="1" source="rjSzeSzZr6Pc4ohsFtxr-7" target="rjSzeSzZr6Pc4ohsFtxr-6">
          <mxGeometry relative="1" as="geometry" />
        </mxCell>
        <mxCell id="rjSzeSzZr6Pc4ohsFtxr-7" value="Position" style="rounded=0;whiteSpace=wrap;html=1;" vertex="1" parent="1">
          <mxGeometry x="680" y="150" width="120" height="60" as="geometry" />
        </mxCell>
        <mxCell id="rjSzeSzZr6Pc4ohsFtxr-29" style="edgeStyle=orthogonalEdgeStyle;rounded=0;orthogonalLoop=1;jettySize=auto;html=1;entryX=0.369;entryY=-0.002;entryDx=0;entryDy=0;entryPerimeter=0;" edge="1" parent="1" source="rjSzeSzZr6Pc4ohsFtxr-8" target="rjSzeSzZr6Pc4ohsFtxr-7">
          <mxGeometry relative="1" as="geometry" />
        </mxCell>
        <mxCell id="rjSzeSzZr6Pc4ohsFtxr-8" value="lat" style="ellipse;whiteSpace=wrap;html=1;" vertex="1" parent="1">
          <mxGeometry x="660" y="30" width="120" height="80" as="geometry" />
        </mxCell>
        <mxCell id="rjSzeSzZr6Pc4ohsFtxr-30" style="edgeStyle=orthogonalEdgeStyle;rounded=0;orthogonalLoop=1;jettySize=auto;html=1;entryX=1;entryY=0.5;entryDx=0;entryDy=0;" edge="1" parent="1" source="rjSzeSzZr6Pc4ohsFtxr-9" target="rjSzeSzZr6Pc4ohsFtxr-7">
          <mxGeometry relative="1" as="geometry" />
        </mxCell>
        <mxCell id="rjSzeSzZr6Pc4ohsFtxr-9" value="lon" style="ellipse;whiteSpace=wrap;html=1;" vertex="1" parent="1">
          <mxGeometry x="820" y="30" width="120" height="80" as="geometry" />
        </mxCell>
        <mxCell id="rjSzeSzZr6Pc4ohsFtxr-31" style="edgeStyle=orthogonalEdgeStyle;rounded=0;orthogonalLoop=1;jettySize=auto;html=1;entryX=1;entryY=0.5;entryDx=0;entryDy=0;" edge="1" parent="1" source="rjSzeSzZr6Pc4ohsFtxr-10" target="rjSzeSzZr6Pc4ohsFtxr-7">
          <mxGeometry relative="1" as="geometry" />
        </mxCell>
        <mxCell id="rjSzeSzZr6Pc4ohsFtxr-10" value="time_stamp" style="ellipse;whiteSpace=wrap;html=1;" vertex="1" parent="1">
          <mxGeometry x="840" y="185" width="120" height="80" as="geometry" />
        </mxCell>
        <mxCell id="rjSzeSzZr6Pc4ohsFtxr-13" value="[1,1]" style="text;html=1;strokeColor=none;fillColor=none;align=center;verticalAlign=middle;whiteSpace=wrap;rounded=0;" vertex="1" parent="1">
          <mxGeometry x="620" y="150" width="60" height="30" as="geometry" />
        </mxCell>
        <mxCell id="rjSzeSzZr6Pc4ohsFtxr-14" value="[0,*]" style="text;html=1;strokeColor=none;fillColor=none;align=center;verticalAlign=middle;whiteSpace=wrap;rounded=0;" vertex="1" parent="1">
          <mxGeometry x="260" y="150" width="60" height="30" as="geometry" />
        </mxCell>
        <mxCell id="rjSzeSzZr6Pc4ohsFtxr-15" value="took" style="rhombus;whiteSpace=wrap;html=1;" vertex="1" parent="1">
          <mxGeometry x="230" y="310" width="80" height="80" as="geometry" />
        </mxCell>
        <mxCell id="rjSzeSzZr6Pc4ohsFtxr-18" style="edgeStyle=orthogonalEdgeStyle;rounded=0;orthogonalLoop=1;jettySize=auto;html=1;entryX=0.5;entryY=1;entryDx=0;entryDy=0;" edge="1" parent="1" source="rjSzeSzZr6Pc4ohsFtxr-17" target="rjSzeSzZr6Pc4ohsFtxr-15">
          <mxGeometry relative="1" as="geometry" />
        </mxCell>
        <mxCell id="rjSzeSzZr6Pc4ohsFtxr-17" value="public_transport" style="rounded=0;whiteSpace=wrap;html=1;" vertex="1" parent="1">
          <mxGeometry x="210" y="490" width="120" height="60" as="geometry" />
        </mxCell>
        <mxCell id="rjSzeSzZr6Pc4ohsFtxr-32" style="edgeStyle=orthogonalEdgeStyle;rounded=0;orthogonalLoop=1;jettySize=auto;html=1;" edge="1" parent="1" source="rjSzeSzZr6Pc4ohsFtxr-19" target="rjSzeSzZr6Pc4ohsFtxr-17">
          <mxGeometry relative="1" as="geometry" />
        </mxCell>
        <mxCell id="rjSzeSzZr6Pc4ohsFtxr-19" value="transport_number" style="ellipse;whiteSpace=wrap;html=1;" vertex="1" parent="1">
          <mxGeometry x="40" y="490" width="120" height="80" as="geometry" />
        </mxCell>
        <mxCell id="rjSzeSzZr6Pc4ohsFtxr-33" style="edgeStyle=orthogonalEdgeStyle;rounded=0;orthogonalLoop=1;jettySize=auto;html=1;entryX=0.513;entryY=1.061;entryDx=0;entryDy=0;entryPerimeter=0;" edge="1" parent="1" source="rjSzeSzZr6Pc4ohsFtxr-20" target="rjSzeSzZr6Pc4ohsFtxr-17">
          <mxGeometry relative="1" as="geometry" />
        </mxCell>
        <mxCell id="rjSzeSzZr6Pc4ohsFtxr-20" value="start_station" style="ellipse;whiteSpace=wrap;html=1;" vertex="1" parent="1">
          <mxGeometry x="210" y="585" width="120" height="80" as="geometry" />
        </mxCell>
        <mxCell id="rjSzeSzZr6Pc4ohsFtxr-34" style="edgeStyle=orthogonalEdgeStyle;rounded=0;orthogonalLoop=1;jettySize=auto;html=1;entryX=1;entryY=0.5;entryDx=0;entryDy=0;" edge="1" parent="1" source="rjSzeSzZr6Pc4ohsFtxr-21" target="rjSzeSzZr6Pc4ohsFtxr-17">
          <mxGeometry relative="1" as="geometry" />
        </mxCell>
        <mxCell id="rjSzeSzZr6Pc4ohsFtxr-21" value="end_station" style="ellipse;whiteSpace=wrap;html=1;" vertex="1" parent="1">
          <mxGeometry x="370" y="560" width="120" height="80" as="geometry" />
        </mxCell>
        <mxCell id="rjSzeSzZr6Pc4ohsFtxr-23" value="[0,*]" style="text;html=1;strokeColor=none;fillColor=none;align=center;verticalAlign=middle;whiteSpace=wrap;rounded=0;" vertex="1" parent="1">
          <mxGeometry x="200" y="210" width="60" height="30" as="geometry" />
        </mxCell>
        <mxCell id="rjSzeSzZr6Pc4ohsFtxr-24" value="[1,1]" style="text;html=1;strokeColor=none;fillColor=none;align=center;verticalAlign=middle;whiteSpace=wrap;rounded=0;" vertex="1" parent="1">
          <mxGeometry x="270" y="460" width="60" height="30" as="geometry" />
        </mxCell>
      </root>
    </mxGraphModel>
  </diagram>
</mxfile>
